<svg height="512pt" viewBox="0 -67 512 512" width="512pt" xmlns="http://www.w3.org/2000/svg"><path d="m492 160.089844h-137.332031v-140.089844c0-11.046875-8.953125-20-20-20h-157.335938c-11.046875 0-20 8.953125-20 20v60.042969h-137.332031c-11.046875 0-20 8.953125-20 20v257.957031c0 11.046875 8.953125 20 20 20h472c11.046875 0 20-8.953125 20-20v-177.910156c0-11.046875-8.953125-20-20-20zm-20 177.910156h-432v-217.957031h117.332031v157.914062c0 11.046875 8.953125 20 20 20s20-8.953125 20-20v-237.957031h117.332031v237.957031c0 11.046875 8.957032 20 20 20 11.046876 0 20-8.953125 20-20v-77.867187h117.335938zm0 0"/></svg>